<?xml version="1.0" standalone="yes"?>
<svg xmlns="http://www.w3.org/2000/svg" width="223" height="79">
<path style="fill:#ffffff; stroke:none;" d="M0 0L0 79L33 79C20.681 72.7054 10.5267 67.2167 4.23534 54C-6.24485 31.9835 10.3686 7.27455 32 1C28.3013 -0.552025 23.9828 0 20 0L0 0z"/>
<path style="fill:#c6ecb3; stroke:none;" d="M32 0C33.5061 0.683037 34.3148 0.82589 36 1C34.494 0.316963 33.6852 0.17411 32 0z"/>
<path style="fill:#a7d692; stroke:none;" d="M36 0.428238C27.5717 1.64869 20.92 4.63467 15.196 10.9213C11.1791 15.333 6.67297 18.1443 4.54784 24C-5.53695 51.7882 15.277 82.7012 46 78.7106C51.784 77.9594 58.0088 75.8207 63 72.7863C80.8737 61.9198 85.8145 35.4011 74.885 18.0039C67.0638 5.55414 50.5148 -1.67356 36 0.428238z"/>
<path style="fill:#e3ffd4; stroke:none;" d="M46 0C47.5061 0.683037 48.3148 0.82589 50 1C48.494 0.316971 47.6852 0.17411 46 0z"/>
<path style="fill:#ffffff; stroke:none;" d="M50 0C60.883 6.88242 71.0822 10.4823 77.341 23C87.904 44.1259 73.6611 75.5257 49 78C53.9691 80.0851 60.6497 79 66 79L101 79L223 79L223 0L50 0z"/>
<path style="fill:#dde9e5; stroke:none;" d="M51.6667 1.33334C51.2222 1.77779 52.2778 1.72221 52.3333 1.66666C52.7778 1.22225 51.7222 1.27776 51.6667 1.33334z"/>
<path style="fill:#c5ebba; stroke:none;" d="M26.6667 2.33334C26.2222 2.77776 27.2778 2.72222 27.3333 2.66666C27.7778 2.22222 26.7222 2.27778 26.6667 2.33334z"/>
<path style="fill:#b9d1af; stroke:none;" d="M54 2C55.543 3.26667 56.0478 3.48924 58 4C56.542 2.91888 55.752 2.56395 54 2z"/>
<path style="fill:#c7dabe; stroke:none;" d="M24.6667 3.33334C24.2222 3.77776 25.2778 3.72221 25.3333 3.66666C25.7778 3.22222 24.7222 3.27778 24.6667 3.33334z"/>
<path style="fill:#cdefbc; stroke:none;" d="M36 5C38.8897 6.21294 41.8741 5.99828 45 6C42.1103 4.78706 39.1259 5.00172 36 5z"/>
<path style="fill:#c6cfbe; stroke:none;" d="M30 6C31.2484 6.68481 31.5484 6.74879 33 7C31.7517 6.3152 31.4516 6.25121 30 6z"/>
<path style="fill:#ffffff; stroke:none;" d="M33 6.59799C-0.146156 14.5542 -1.20451 64.897 33 72.1813C38.5824 73.3702 44.4497 73.2882 50 71.9599C54.6235 70.8533 59.1941 68.9595 62.9097 65.956C90.608 43.5663 67.2509 -1.62335 33 6.59799z"/>
<path style="fill:#d3ffc3; stroke:none;" d="M63 6L64 7L63 6z"/>
<path style="fill:#eaf9da; stroke:none;" d="M29.6667 7.33334C29.2222 7.77777 30.2778 7.72221 30.3333 7.66666C30.7778 7.2222 29.7222 7.27779 29.6667 7.33334z"/>
<path style="fill:#b5cfa0; stroke:none;" d="M10 16C13.4187 13.8536 15.7439 11.3388 18 8C14.1216 9.81417 11.8142 12.1216 10 16z"/>
<path style="fill:#b5b9ba; stroke:none;" d="M24.3032 18.1752C20.9582 19.8212 23.2281 24.6783 26.6968 23.1991C30.0993 21.748 27.5097 16.5973 24.3032 18.1752z"/>
<path style="fill:#c9e1bd; stroke:none;" d="M77.3333 22.6667C77.2778 22.7222 77.2222 23.7778 77.6667 23.3333C77.7222 23.2778 77.7778 22.2222 77.3333 22.6667z"/>
<path style="fill:#cce1c0; stroke:none;" d="M3.33333 26.6667C3.27779 26.7222 3.22222 27.7778 3.66667 27.3333C3.72223 27.2778 3.77777 26.2222 3.33333 26.6667z"/>
<path style="fill:#b3b9b9; stroke:none;" d="M23.588 29.0471C21.8463 30.373 22.0412 33.0657 22.0046 35.0008C21.8964 40.723 21.1846 47.2962 22.1481 52.9414C22.5344 55.2044 24.199 57.3772 26.7014 55.9136C28.7621 54.7083 28.8887 52.1099 28.9807 49.9992C29.2248 44.397 29.871 37.5656 28.7716 32.0586C28.3022 29.7072 26.127 27.1141 23.588 29.0471z"/>
<path style="fill:#b4b8b9; stroke:none;" d="M42 32C40.755 28.2542 36.9547 27.3215 36.1481 32.0586C35.1213 38.0896 35.5041 45.8895 36.0586 51.9807C36.2793 54.4045 37.6586 57.6933 40.7014 55.9136C46.3079 52.6345 38.8147 32.4179 49.8989 34.0602C56.9179 35.1001 54.6384 47.3617 55.0586 51.9807C55.2462 54.0426 56.5897 57.8983 59.4159 55.9136C62.3743 53.8361 61 46.1143 61 43C61 39.6648 61.7274 35.1504 59.9722 32.1443C55.9353 25.2302 46.9784 28.801 42 32z"/>
<path style="fill:#d0d4d3; stroke:none;" d="M54.6667 28.3333C54.2222 28.7778 55.2778 28.7222 55.3333 28.6667C55.7778 28.2222 54.7222 28.2778 54.6667 28.3333z"/>
<path style="fill:#d6f0c9; stroke:none;" d="M93 28C94.2484 28.6848 94.5484 28.7488 96 29C94.7517 28.3152 94.4516 28.2512 93 28M102 28C103.769 28.7789 105.036 28.9124 107 29C105.231 28.2211 103.964 28.0876 102 28z"/>
<path style="fill:#d4f2cc; stroke:none;" d="M126 28C127.769 28.7789 129.036 28.9124 131 29C129.231 28.2211 127.964 28.0876 126 28z"/>
<path style="fill:#def6d6; stroke:none;" d="M144.667 28.3333C144.222 28.7778 145.278 28.7222 145.333 28.6667C145.778 28.2222 144.722 28.2778 144.667 28.3333z"/>
<path style="fill:#d5f4c8; stroke:none;" d="M157 28C158.248 28.6848 158.548 28.7488 160 29C158.752 28.3152 158.452 28.2512 157 28z"/>
<path style="fill:#daf0c9; stroke:none;" d="M170 28C171.506 28.683 172.315 28.8259 174 29C172.494 28.317 171.685 28.1741 170 28z"/>
<path style="fill:#d5edc9; stroke:none;" d="M185 28C187.052 28.8742 188.747 28.9528 191 29C188.948 28.1258 187.253 28.0472 185 28z"/>
<path style="fill:#d9eccc; stroke:none;" d="M204 28C205.248 28.6848 205.548 28.7488 207 29C205.752 28.3152 205.452 28.2512 204 28z"/>
<path style="fill:#d1ebc4; stroke:none;" d="M211 28C212.506 28.683 213.315 28.8259 215 29C213.494 28.317 212.685 28.1741 211 28z"/>
<path style="fill:#ceeac1; stroke:none;" d="M2 29L2 32C2.6961 30.4463 2.6961 30.5537 2 29z"/>
<path style="fill:#a6d893; stroke:none;" d="M92 29L92 58L97 58L97 47C98.929 48.1907 100.749 49.4205 103.041 49.7716C116.73 51.8684 117.819 27.754 103.041 29.1829C100.657 29.4134 98.9206 30.7026 97 32C96.3456 28.9461 94.9934 29.0642 92 29z"/>
<path style="fill:#d6e4cd; stroke:none;" d="M107.667 29.3333C107.222 29.7778 108.278 29.7222 108.333 29.6667C108.778 29.2222 107.722 29.2778 107.667 29.3333z"/>
<path style="fill:#b4cdad; stroke:none;" d="M123 29C126.163 30.3274 129.586 29.9996 133 30C129.837 28.6726 126.414 29.0004 123 29z"/>
<path style="fill:#a7d48f; stroke:none;" d="M142 30C143.855 36.9348 145.526 49.3262 154 50C154.808 45.2465 156.603 40.8492 157 36L159 36C159.219 38.1442 159.577 39.9646 160.309 42.0046C160.88 43.5951 161.381 45.3267 162.105 46.8519C163.749 50.3149 167.098 50.243 168.776 46.8519C171.416 41.5184 173.484 34.9122 174 29C166.776 30.202 168.233 39.1975 164 44C163.716 40.5226 163.04 29.6358 158.035 29.6358C153.661 29.6358 152.318 40.8078 152 44L150 44C149.59 38.8496 148.146 34.0125 147 29C145.122 29.1759 143.801 29.4382 142 30z"/>
<path style="fill:#b5cda9; stroke:none;" d="M180 32C184.522 30.9372 188.274 30.0037 193 30C188.565 28.1389 183.388 28.5403 180 32z"/>
<path style="fill:#a7d594; stroke:none;" d="M203 29L203 50L208 50C208 41.9739 206.913 34.3276 217 34C216.203 29.2258 212.838 28.1085 209 31C206.834 29.8047 205.447 29.309 203 29z"/>
<path style="fill:#d6dad9; stroke:none;" d="M42 30L42 32L44 32C43.4549 30.3648 43.6352 30.5451 42 30z"/>
<path style="fill:#d5edcd; stroke:none;" d="M74.3333 30.6667C74.2777 30.7223 74.2222 31.7778 74.6667 31.3333C74.7222 31.2778 74.7778 30.2222 74.3333 30.6667z"/>
<path style="fill:#d8f2cd; stroke:none;" d="M97 30L97 32L99 32C98.4549 30.3648 98.6352 30.5451 97 30z"/>
<path style="fill:#a9d691; stroke:none;" d="M121.228 31.0278C116.849 33.7052 116.909 43.0227 119.742 46.7716C122.749 50.7509 130.724 51.1169 134.811 48.6821C139.749 45.7399 140.746 36.3822 136.682 32.3179C133.626 29.2614 124.895 28.7861 121.228 31.0278z"/>
<path style="fill:#dff8d1; stroke:none;" d="M147.333 30.6667C147.278 30.7222 147.222 31.7778 147.667 31.3333C147.722 31.2777 147.778 30.2222 147.333 30.6667z"/>
<path style="fill:#d8edcc; stroke:none;" d="M161.333 30.6667C161.278 30.7222 161.222 31.7778 161.667 31.3333C161.722 31.2778 161.778 30.2222 161.333 30.6667z"/>
<path style="fill:#a3d892; stroke:none;" d="M178 38C182.843 37.1892 188.951 29.0874 191.838 36.8596C192.185 37.794 191.985 39.0848 192 40L196 40C196.277 37.7547 197.259 34.6379 195.933 32.5725C190.963 24.8313 180.082 32.1217 178 38z"/>
<path style="fill:#cff1be; stroke:none;" d="M202 30L202 48C203.952 43.349 203.952 34.651 202 30z"/>
<path style="fill:#bfd9b4; stroke:none;" d="M217 30L217 34C217.71 32.2405 217.71 31.7595 217 30z"/>
<path style="fill:#dff2d4; stroke:none;" d="M218.333 31.6667C218.278 31.7222 218.222 32.7778 218.667 32.3333C218.722 32.2778 218.778 31.2222 218.333 31.6667z"/>
<path style="fill:#dff7d3; stroke:none;" d="M7 32L7 37C7.82989 34.9695 7.8299 34.0305 7 32z"/>
<path style="fill:#b2cea5; stroke:none;" d="M80 32L80 45C81.5909 41.2087 81.5909 35.7913 80 32z"/>
<path style="fill:#edfbda; stroke:none;" d="M142.333 32.6667C142.278 32.7222 142.222 33.7778 142.667 33.3333C142.722 33.2777 142.778 32.2222 142.333 32.6667z"/>
<path style="fill:#bdecb8; stroke:none;" d="M154.333 32.6667C154.278 32.7222 154.222 33.7778 154.667 33.3333C154.722 33.2777 154.778 32.2222 154.333 32.6667z"/>
<path style="fill:#d2f3c4; stroke:none;" d="M168.333 32.6667C168.278 32.7222 168.222 33.7778 168.667 33.3333C168.722 33.2777 168.778 32.2222 168.333 32.6667z"/>
<path style="fill:#aad39b; stroke:none;" d="M179 32C176.678 36.8256 176.027 43.5408 180.303 47.6821C185.391 52.609 195.614 50.2948 198 44C192.328 44.3763 187.839 46.408 182 46L182 41C189.153 41 197.696 43.2526 198 34C196.584 36.0415 196.255 37.511 196 40C189.775 38.6125 184.456 38 178 38C178.955 35.7068 179.589 34.3702 179 32z"/>
<path style="fill:#ffffff; stroke:none;" d="M183 38C186.041 37.8183 188.963 37.7313 192 38C190.885 31.2614 184.769 31.9198 183 38z"/>
<path style="fill:#d2e3d1; stroke:none;" d="M188.667 32.3333C188.222 32.7778 189.278 32.7222 189.333 32.6667C189.778 32.2223 188.722 32.2778 188.667 32.3333z"/>
<path style="fill:#bfd2b6; stroke:none;" d="M1 33L1 44C2.43089 40.59 2.43089 36.41 1 33z"/>
<path style="fill:#e9ffda; stroke:none;" d="M101.667 33.3333C101.222 33.7778 102.278 33.7222 102.333 33.6667C102.778 33.2222 101.722 33.2778 101.667 33.3333z"/>
<path style="fill:#ffffff; stroke:none;" d="M103 34.0062C96.5442 34.1002 96.7232 45.3642 103 45.3642C109.272 45.3642 109.477 33.9118 103 34.0062M127.13 34.0471C120.834 35.6727 123.19 47.4614 129.895 45.1991C136.138 43.0927 133.971 32.2807 127.13 34.0471z"/>
<path style="fill:#e0ffd3; stroke:none;" d="M128 33C129.248 33.6848 129.548 33.7488 131 34C129.752 33.3152 129.452 33.2512 128 33z"/>
<path style="fill:#e0f5cc; stroke:none;" d="M173 33L173 36C173.696 34.4463 173.696 34.5537 173 33z"/>
<path style="fill:#cee8c3; stroke:none;" d="M75 34L75 43C76.2561 40.0059 76.2561 36.9941 75 34z"/>
<path style="fill:#d3e5cb; stroke:none;" d="M113.333 34.6667C113.278 34.7223 113.222 35.7778 113.667 35.3333C113.722 35.2778 113.778 34.2222 113.333 34.6667z"/>
<path style="fill:#dae8d9; stroke:none;" d="M143.333 34.6667C143.278 34.7222 143.222 35.7778 143.667 35.3333C143.722 35.2778 143.778 34.2222 143.333 34.6667z"/>
<path style="fill:#c6dbcc; stroke:none;" d="M162.333 34.6667C162.278 34.7222 162.222 35.7778 162.667 35.3333C162.722 35.2778 162.778 34.2222 162.333 34.6667z"/>
<path style="fill:#cbdcca; stroke:none;" d="M214 34C215.248 34.6848 215.548 34.7488 217 35C215.752 34.3152 215.452 34.2512 214 34z"/>
<path style="fill:#cdd7b4; stroke:none;" d="M117 36L117 43C118.059 40.4657 118.059 38.5343 117 36z"/>
<path style="fill:#eaffd4; stroke:none;" d="M123.333 36.6667C123.278 36.7222 123.222 37.7778 123.667 37.3333C123.722 37.2778 123.778 36.2222 123.333 36.6667z"/>
<path style="fill:#d0ebb4; stroke:none;" d="M139 36L139 42C139.951 39.7147 139.951 38.2853 139 36z"/>
<path style="fill:#c6d5c0; stroke:none;" d="M153.333 36.6667C153.278 36.7222 153.222 37.7778 153.667 37.3333C153.722 37.2777 153.778 36.2222 153.333 36.6667z"/>
<path style="fill:#caecb9; stroke:none;" d="M157 36L157 38C158.635 37.455 158.455 37.6351 159 36L157 36z"/>
<path style="fill:#cae0c9; stroke:none;" d="M167.333 36.6667C167.278 36.7222 167.222 37.7778 167.667 37.3333C167.722 37.2777 167.778 36.2222 167.333 36.6667z"/>
<path style="fill:#e8f5d7; stroke:none;" d="M172.333 36.6667C172.278 36.7222 172.222 37.7778 172.667 37.3333C172.722 37.2777 172.778 36.2222 172.333 36.6667z"/>
<path style="fill:#c3e3be; stroke:none;" d="M182.333 36.6667C182.278 36.7222 182.222 37.7778 182.667 37.3333C182.722 37.2777 182.778 36.2222 182.333 36.6667z"/>
<path style="fill:#cce2be; stroke:none;" d="M192.333 36.6667C192.278 36.7222 192.222 37.7778 192.667 37.3333C192.722 37.2777 192.778 36.2222 192.333 36.6667z"/>
<path style="fill:#e0eed4; stroke:none;" d="M208 36L208 40C208.71 38.2405 208.71 37.7595 208 36z"/>
<path style="fill:#dadcdb; stroke:none;" d="M61 37L61 54C62.8826 49.5135 62.8826 41.4865 61 37z"/>
<path style="fill:#bbe0b4; stroke:none;" d="M97 37L97 42C97.8299 39.9695 97.8299 39.0305 97 37z"/>
<path style="fill:#c3e8b5; stroke:none;" d="M163 37L163 40C163.696 38.4463 163.696 38.5537 163 37z"/>
<path style="fill:#e3fedb; stroke:none;" d="M176 37L176 41C176.71 39.2405 176.71 38.7595 176 37z"/>
<path style="fill:#dfead9; stroke:none;" d="M186.667 37.3333C186.222 37.7778 187.278 37.7222 187.333 37.6667C187.778 37.2222 186.722 37.2778 186.667 37.3333z"/>
<path style="fill:#e0e6d8; stroke:none;" d="M189.667 37.3333C189.222 37.7778 190.278 37.7222 190.333 37.6667C190.778 37.2222 189.722 37.2778 189.667 37.3333z"/>
<path style="fill:#c8cccd; stroke:none;" d="M54 38L54 54C55.8123 49.6811 55.8123 42.3189 54 38z"/>
<path style="fill:#c5edb8; stroke:none;" d="M108 38L108 41C108.696 39.4463 108.696 39.5537 108 38z"/>
<path style="fill:#c2deb8; stroke:none;" d="M122 38L122 41C122.696 39.4463 122.696 39.5537 122 38z"/>
<path style="fill:#c6e2af; stroke:none;" d="M149.333 38.6667C149.278 38.7222 149.222 39.7778 149.667 39.3333C149.722 39.2777 149.778 38.2222 149.333 38.6667z"/>
<path style="fill:#d9edc8; stroke:none;" d="M152.333 38.6667C152.278 38.7222 152.222 39.7778 152.667 39.3333C152.722 39.2777 152.778 38.2222 152.333 38.6667z"/>
<path style="fill:#d2f0bc; stroke:none;" d="M166.333 39.6667C166.278 39.7222 166.222 40.7778 166.667 40.3333C166.722 40.2778 166.778 39.2222 166.333 39.6667z"/>
<path style="fill:#e7fadc; stroke:none;" d="M171.333 39.6667C171.278 39.7222 171.222 40.7778 171.667 40.3333C171.722 40.2777 171.778 39.2222 171.333 39.6667z"/>
<path style="fill:#e3f0d4; stroke:none;" d="M145.333 40.6667C145.278 40.7222 145.222 41.7778 145.667 41.3333C145.722 41.2778 145.778 40.2222 145.333 40.6667z"/>
<path style="fill:#d6eeca; stroke:none;" d="M156.333 40.6667C156.278 40.7222 156.222 41.7778 156.667 41.3333C156.722 41.2777 156.778 40.2222 156.333 40.6667z"/>
<path style="fill:#c9ddba; stroke:none;" d="M164 41C164.406 43.0924 164.217 43.0198 166 44C165.309 42.6116 165.015 42.1394 164 41z"/>
<path style="fill:#d7f8c3; stroke:none;" d="M182 43C186.655 41.8917 191.239 42 196 42C192.234 40.4196 184.848 39.7411 182 43z"/>
<path style="fill:#e0f5d6; stroke:none;" d="M7 42L7 45C7.6961 43.4463 7.6961 43.5537 7 42z"/>
<path style="fill:#d3f4bb; stroke:none;" d="M113.333 42.6667C113.278 42.7222 113.222 43.7778 113.667 43.3333C113.722 43.2778 113.778 42.2222 113.333 42.6667z"/>
<path style="fill:#c9e4c3; stroke:none;" d="M150 42L150 44L152 44L152 42L150 42z"/>
<path style="fill:#dbf3cf; stroke:none;" d="M160.333 42.6667C160.278 42.7222 160.222 43.7778 160.667 43.3333C160.722 43.2778 160.778 42.2222 160.333 42.6667z"/>
<path style="fill:#e5f7dd; stroke:none;" d="M170.333 42.6667C170.278 42.7222 170.222 43.7778 170.667 43.3333C170.722 43.2777 170.778 42.2222 170.333 42.6667z"/>
<path style="fill:#cae2c2; stroke:none;" d="M177.333 42.6667C177.278 42.7222 177.222 43.7778 177.667 43.3333C177.722 43.2778 177.778 42.2222 177.333 42.6667z"/>
<path style="fill:#b4ccac; stroke:none;" d="M182 43C182.406 45.0924 182.217 45.0198 184 46C183.316 44.42 183.195 44.2228 182 43z"/>
<path style="fill:#cfddc4; stroke:none;" d="M195.667 43.3333C195.222 43.7778 196.278 43.7222 196.333 43.6667C196.778 43.2222 195.722 43.2778 195.667 43.3333z"/>
<path style="fill:#dee7d6; stroke:none;" d="M1.33333 44.6667C1.27777 44.7222 1.22222 45.7778 1.66667 45.3333C1.72222 45.2778 1.77779 44.2222 1.33333 44.6667z"/>
<path style="fill:#e5f5d0; stroke:none;" d="M155.333 44.6667C155.278 44.7222 155.222 45.7778 155.667 45.3333C155.722 45.2777 155.778 44.2222 155.333 44.6667z"/>
<path style="fill:#c4deb9; stroke:none;" d="M161 44L161 47C161.696 45.4463 161.696 45.5537 161 44z"/>
<path style="fill:#d3f5c3; stroke:none;" d="M169.333 44.6667C169.278 44.7222 169.222 45.7778 169.667 45.3333C169.722 45.2777 169.778 44.2222 169.333 44.6667z"/>
<path style="fill:#d8f0d0; stroke:none;" d="M80 45L80 48C80.6961 46.4463 80.6961 46.5537 80 45z"/>
<path style="fill:#c8deb8; stroke:none;" d="M154 46L154 49C154.696 47.4463 154.696 47.5537 154 46z"/>
<path style="fill:#dbf5c8; stroke:none;" d="M186 46C187.506 46.683 188.315 46.8259 190 47C188.494 46.3169 187.685 46.1741 186 46z"/>
<path style="fill:#d8edc6; stroke:none;" d="M97 47L97 56C98.1945 53.1805 98.2818 50.0074 99 47L97 47z"/>
<path style="fill:#ddfbd5; stroke:none;" d="M2.33333 48.6667C2.27778 48.7222 2.22223 49.7778 2.66667 49.3333C2.72222 49.2778 2.77778 48.2222 2.33333 48.6667z"/>
<path style="fill:#e7fadc; stroke:none;" d="M148.333 48.6667C148.278 48.7222 148.222 49.7778 148.667 49.3333C148.722 49.2778 148.778 48.2222 148.333 48.6667z"/>
<path style="fill:#e8ffd9; stroke:none;" d="M193.667 49.3333C193.222 49.7778 194.278 49.7222 194.333 49.6667C194.778 49.2222 193.722 49.2778 193.667 49.3333z"/>
<path style="fill:#c6dac1; stroke:none;" d="M73.3333 50.6667C73.2778 50.7222 73.2222 51.7778 73.6667 51.3333C73.7222 51.2778 73.7778 50.2222 73.3333 50.6667z"/>
<path style="fill:#e4fad4; stroke:none;" d="M79.3333 50.6667C79.2778 50.7222 79.2222 51.7778 79.6667 51.3333C79.7222 51.2778 79.7778 50.2222 79.3333 50.6667z"/>
<path style="fill:#dfe5db; stroke:none;" d="M102 50C103.506 50.683 104.315 50.8259 106 51C104.494 50.317 103.685 50.1741 102 50z"/>
<path style="fill:#deeade; stroke:none;" d="M127 50C128.248 50.6848 128.548 50.7488 130 51C128.752 50.3152 128.452 50.2512 127 50z"/>
<path style="fill:#d7e9db; stroke:none;" d="M164.667 50.3333C164.222 50.7778 165.278 50.7222 165.333 50.6667C165.778 50.2222 164.722 50.2778 164.667 50.3333z"/>
<path style="fill:#dfe7da; stroke:none;" d="M186 50C187.506 50.683 188.315 50.8259 190 51C188.494 50.3169 187.685 50.1741 186 50z"/>
<path style="fill:#dff3d8; stroke:none;" d="M3.33333 51.6667C3.27778 51.7222 3.22223 52.7778 3.66667 52.3333C3.72222 52.2778 3.77778 51.2222 3.33333 51.6667z"/>
<path style="fill:#ebfad9; stroke:none;" d="M4.33333 54.6667C4.27778 54.7222 4.22222 55.7778 4.66667 55.3333C4.72222 55.2778 4.77778 54.2222 4.33333 54.6667z"/>
<path style="fill:#cce2b1; stroke:none;" d="M70.3333 56.6667C70.2778 56.7222 70.2222 57.7778 70.6667 57.3333C70.7222 57.2778 70.7778 56.2222 70.3333 56.6667z"/>
<path style="fill:#cadec2; stroke:none;" d="M93 58C94.2484 58.6848 94.5484 58.7488 96 59C94.7517 58.3152 94.4516 58.2512 93 58z"/>
<path style="fill:#b2cbad; stroke:none;" d="M59 68L57 69C58.482 69.7912 59.7964 69.8698 59 68z"/>
<path style="fill:#c4f0b3; stroke:none;" d="M54.6667 70.3333C54.2222 70.7778 55.2778 70.7222 55.3333 70.6667C55.7778 70.2222 54.7222 70.2778 54.6667 70.3333z"/>
<path style="fill:#c7dbc0; stroke:none;" d="M52.6667 71.3333C52.2222 71.7778 53.2778 71.7222 53.3333 71.6667C53.7778 71.2222 52.7222 71.2778 52.6667 71.3333z"/>
<path style="fill:#d5f2c2; stroke:none;" d="M32 72C33.2484 72.6848 33.5484 72.7488 35 73C33.7516 72.3152 33.4516 72.2512 32 72z"/>
<path style="fill:#e4f6cc; stroke:none;" d="M47 72C48.2483 72.6848 48.5484 72.7488 50 73C48.7516 72.3152 48.4516 72.2512 47 72z"/>
<path style="fill:#d8e4d8; stroke:none;" d="M36 73C39.1633 74.3274 42.5856 73.9996 46 74C42.8367 72.6726 39.4144 73.0004 36 73z"/>
<path style="fill:#d1dccc; stroke:none;" d="M59 74L60 75L59 74z"/>
<path style="fill:#e8feda; stroke:none;" d="M57.6667 75.3333C57.2222 75.7778 58.2778 75.7222 58.3333 75.6667C58.7778 75.2222 57.7222 75.2778 57.6667 75.3333z"/>
<path style="fill:#dde4dc; stroke:none;" d="M54.6667 76.3333C54.2222 76.7778 55.2778 76.7222 55.3333 76.6667C55.7778 76.2222 54.7222 76.2778 54.6667 76.3333z"/>
<path style="fill:#dcf9cd; stroke:none;" d="M28.6667 77.3333C28.2222 77.7778 29.2778 77.7222 29.3333 77.6667C29.7778 77.2222 28.7222 77.2778 28.6667 77.3333z"/>
<path style="fill:#e6ffdd; stroke:none;" d="M52.6667 77.3333C52.2222 77.7778 53.2778 77.7222 53.3333 77.6667C53.7778 77.2222 52.7222 77.2778 52.6667 77.3333z"/>
<path style="fill:#c1e2b5; stroke:none;" d="M33 78C34.769 78.7789 36.0359 78.9124 38 79C36.231 78.2211 34.9641 78.0876 33 78z"/>
<path style="fill:#e0edd9; stroke:none;" d="M47.6667 78.3333C47.2222 78.7778 48.2778 78.7222 48.3333 78.6667C48.7778 78.2222 47.7222 78.2778 47.6667 78.3333z"/>
</svg>
